<mxfile host="65bd71144e">
    <diagram id="EZxaQw9ckF1vR2Bi5WWT" name="vm-v2">
        <mxGraphModel dx="927" dy="1107" grid="1" gridSize="10" guides="1" tooltips="1" connect="1" arrows="1" fold="1" page="1" pageScale="1" pageWidth="690" pageHeight="980" math="0" shadow="0">
            <root>
                <mxCell id="0"/>
                <mxCell id="1" parent="0"/>
                <mxCell id="CsHc_jXI1Mu5Qs9rJTMG-1" value="" style="rounded=0;whiteSpace=wrap;html=1;fillColor=#FFFFFF;fontColor=#0066ff;strokeColor=none;arcSize=5;strokeWidth=2;fontFamily=JetBrains Mono;fontSource=https%3A%2F%2Ffonts.googleapis.com%2Fcss%3Ffamily%3DJetBrains%2BMono;fontStyle=1" parent="1" vertex="1">
                    <mxGeometry x="60" y="140" width="380" height="520" as="geometry"/>
                </mxCell>
                <mxCell id="2" value="" style="rounded=1;whiteSpace=wrap;html=1;arcSize=3;strokeWidth=2;fontFamily=JetBrains Mono;fontSource=https%3A%2F%2Ffonts.googleapis.com%2Fcss%3Ffamily%3DJetBrains%2BMono;fillColor=#f5f5fb;strokeColor=#f5f5fb;dashed=1;fontStyle=1" parent="1" vertex="1">
                    <mxGeometry x="80" y="160" width="340" height="480" as="geometry"/>
                </mxCell>
                <mxCell id="CsHc_jXI1Mu5Qs9rJTMG-2" value="" style="rounded=1;whiteSpace=wrap;html=1;fillColor=#cdd1e6;strokeColor=#cdd1e6;arcSize=3;strokeWidth=2;fontFamily=JetBrains Mono;fontSource=https%3A%2F%2Ffonts.googleapis.com%2Fcss%3Ffamily%3DJetBrains%2BMono;fontStyle=1" parent="1" vertex="1">
                    <mxGeometry x="100" y="180" width="300" height="380" as="geometry"/>
                </mxCell>
                <mxCell id="CsHc_jXI1Mu5Qs9rJTMG-5" value="" style="rounded=1;whiteSpace=wrap;html=1;fillColor=#e7e9f5;arcSize=3;strokeColor=#e7e9f;strokeWidth=2;fontFamily=JetBrains Mono;fontSource=https%3A%2F%2Ffonts.googleapis.com%2Fcss%3Ffamily%3DJetBrains%2BMono;fontStyle=1" parent="1" vertex="1">
                    <mxGeometry x="120" y="200" width="260" height="250" as="geometry"/>
                </mxCell>
                <mxCell id="7" value="" style="rounded=1;whiteSpace=wrap;html=1;fontColor=default;dashed=1;fillColor=none;strokeWidth=1;arcSize=5;" parent="1" vertex="1">
                    <mxGeometry x="140" y="240" width="220" height="190" as="geometry"/>
                </mxCell>
                <mxCell id="CsHc_jXI1Mu5Qs9rJTMG-3" value="" style="rounded=1;whiteSpace=wrap;html=1;fillColor=#e7e9f5;strokeColor=#e7e9f;arcSize=19;strokeWidth=2;fontFamily=JetBrains Mono;fontSource=https%3A%2F%2Ffonts.googleapis.com%2Fcss%3Ffamily%3DJetBrains%2BMono;fontStyle=1" parent="1" vertex="1">
                    <mxGeometry x="120" y="490" width="260" height="50" as="geometry"/>
                </mxCell>
                <mxCell id="CsHc_jXI1Mu5Qs9rJTMG-4" value="Node" style="text;html=1;strokeColor=none;fillColor=none;align=left;verticalAlign=middle;whiteSpace=wrap;rounded=0;fontColor=#5E6697;strokeWidth=2;fontFamily=JetBrains Mono;fontSource=https%3A%2F%2Ffonts.googleapis.com%2Fcss%3Ffamily%3DJetBrains%2BMono;fontStyle=1;" parent="1" vertex="1">
                    <mxGeometry x="100" y="160" width="60" height="20" as="geometry"/>
                </mxCell>
                <mxCell id="CsHc_jXI1Mu5Qs9rJTMG-6" value="virt-launcher pod" style="text;html=1;strokeColor=none;fillColor=none;align=left;verticalAlign=middle;whiteSpace=wrap;rounded=0;fontColor=#5E6697;strokeWidth=2;fontFamily=JetBrains Mono;fontSource=https%3A%2F%2Ffonts.googleapis.com%2Fcss%3Ffamily%3DJetBrains%2BMono;fontStyle=1;" parent="1" vertex="1">
                    <mxGeometry x="140" y="200" width="220" height="20" as="geometry"/>
                </mxCell>
                <mxCell id="CsHc_jXI1Mu5Qs9rJTMG-9" style="edgeStyle=none;html=1;exitX=0.5;exitY=1;exitDx=0;exitDy=0;entryX=0.5;entryY=0;entryDx=0;entryDy=0;endArrow=classic;endFill=1;startArrow=classic;startFill=1;fillColor=#5e6697;strokeColor=#5e6697;fontColor=#0066ff;strokeWidth=2;fontFamily=JetBrains Mono;fontSource=https%3A%2F%2Ffonts.googleapis.com%2Fcss%3Ffamily%3DJetBrains%2BMono;fontStyle=1" parent="1" source="CsHc_jXI1Mu5Qs9rJTMG-10" target="CsHc_jXI1Mu5Qs9rJTMG-22" edge="1">
                    <mxGeometry relative="1" as="geometry"/>
                </mxCell>
                <mxCell id="CsHc_jXI1Mu5Qs9rJTMG-13" value="&lt;font color=&quot;#5e6697&quot;&gt;VM&lt;/font&gt;" style="rounded=0;whiteSpace=wrap;html=1;fillColor=none;fontColor=#0066ff;strokeColor=#5e6697;arcSize=5;strokeWidth=2;fontFamily=JetBrains Mono;fontSource=https%3A%2F%2Ffonts.googleapis.com%2Fcss%3Ffamily%3DJetBrains%2BMono;fontStyle=1" parent="1" vertex="1">
                    <mxGeometry x="180" y="350" width="140" height="60" as="geometry"/>
                </mxCell>
                <mxCell id="CsHc_jXI1Mu5Qs9rJTMG-14" value="Kernel" style="text;html=1;strokeColor=none;fillColor=none;align=center;verticalAlign=middle;whiteSpace=wrap;rounded=0;fontColor=#5E6697;strokeWidth=2;fontFamily=JetBrains Mono;fontSource=https%3A%2F%2Ffonts.googleapis.com%2Fcss%3Ffamily%3DJetBrains%2BMono;fontStyle=1;" parent="1" vertex="1">
                    <mxGeometry x="140" y="505" width="60" height="20" as="geometry"/>
                </mxCell>
                <mxCell id="9" style="edgeStyle=orthogonalEdgeStyle;html=1;exitX=1;exitY=0.5;exitDx=0;exitDy=0;entryX=1;entryY=0.5;entryDx=0;entryDy=0;fontColor=default;startArrow=classic;startFill=1;strokeWidth=2;strokeColor=#5e6697;" parent="1" source="CsHc_jXI1Mu5Qs9rJTMG-15" target="CsHc_jXI1Mu5Qs9rJTMG-22" edge="1">
                    <mxGeometry relative="1" as="geometry">
                        <Array as="points">
                            <mxPoint x="390" y="515"/>
                            <mxPoint x="390" y="340"/>
                        </Array>
                    </mxGeometry>
                </mxCell>
                <mxCell id="CsHc_jXI1Mu5Qs9rJTMG-15" value="KVM" style="rounded=1;whiteSpace=wrap;html=1;fillColor=#5e6697;fontColor=#f5f5fb;strokeColor=#5e6697;strokeWidth=2;fontFamily=JetBrains Mono;fontSource=https%3A%2F%2Ffonts.googleapis.com%2Fcss%3Ffamily%3DJetBrains%2BMono;fontStyle=1" parent="1" vertex="1">
                    <mxGeometry x="270" y="505" width="70" height="20" as="geometry"/>
                </mxCell>
                <mxCell id="CsHc_jXI1Mu5Qs9rJTMG-16" value="OS" style="text;html=1;strokeColor=none;fillColor=none;align=left;verticalAlign=middle;whiteSpace=wrap;rounded=0;fontColor=#5E6697;strokeWidth=2;fontFamily=JetBrains Mono;fontSource=https%3A%2F%2Ffonts.googleapis.com%2Fcss%3Ffamily%3DJetBrains%2BMono;fontStyle=1;" parent="1" vertex="1">
                    <mxGeometry x="120" y="180" width="60" height="20" as="geometry"/>
                </mxCell>
                <mxCell id="CsHc_jXI1Mu5Qs9rJTMG-18" value="" style="rounded=1;whiteSpace=wrap;html=1;fillColor=none;fontColor=#0066ff;strokeColor=#5e6697;arcSize=20;strokeWidth=2;fillStyle=hatch;gradientColor=none;perimeterSpacing=0;fontFamily=JetBrains Mono;fontSource=https%3A%2F%2Ffonts.googleapis.com%2Fcss%3Ffamily%3DJetBrains%2BMono;fontStyle=1" parent="1" vertex="1">
                    <mxGeometry x="100" y="590" width="300" height="30" as="geometry"/>
                </mxCell>
                <mxCell id="CsHc_jXI1Mu5Qs9rJTMG-19" value="Hardware" style="text;html=1;strokeColor=none;fillColor=none;align=center;verticalAlign=middle;whiteSpace=wrap;rounded=0;fontColor=#5E6697;strokeWidth=2;fontFamily=JetBrains Mono;fontSource=https%3A%2F%2Ffonts.googleapis.com%2Fcss%3Ffamily%3DJetBrains%2BMono;fontStyle=1;" parent="1" vertex="1">
                    <mxGeometry x="220" y="595" width="60" height="20" as="geometry"/>
                </mxCell>
                <mxCell id="CsHc_jXI1Mu5Qs9rJTMG-21" style="edgeStyle=orthogonalEdgeStyle;html=1;strokeColor=#5e6697;fontColor=#FFFFFF;endFill=1;startArrow=classic;startFill=1;strokeWidth=2;entryX=0.5;entryY=1;entryDx=0;entryDy=0;fontFamily=JetBrains Mono;fontSource=https%3A%2F%2Ffonts.googleapis.com%2Fcss%3Ffamily%3DJetBrains%2BMono;exitX=0.5;exitY=0;exitDx=0;exitDy=0;fillColor=#5e6697;fontStyle=1" parent="1" source="CsHc_jXI1Mu5Qs9rJTMG-18" target="CsHc_jXI1Mu5Qs9rJTMG-3" edge="1">
                    <mxGeometry relative="1" as="geometry">
                        <mxPoint x="250" y="480" as="sourcePoint"/>
                        <mxPoint x="190" y="510" as="targetPoint"/>
                        <Array as="points"/>
                    </mxGeometry>
                </mxCell>
                <mxCell id="10" value="" style="rounded=1;whiteSpace=wrap;html=1;dashed=1;strokeWidth=2;fontColor=default;fillColor=none;strokeColor=#0064ff;dashPattern=1 1;" parent="1" vertex="1">
                    <mxGeometry x="160" y="260" width="180" height="100" as="geometry"/>
                </mxCell>
                <mxCell id="11" value="&lt;font color=&quot;#408bff&quot;&gt;firmware&lt;/font&gt;" style="text;html=1;strokeColor=none;fillColor=none;align=left;verticalAlign=middle;whiteSpace=wrap;rounded=0;fontColor=#f5f5fb;strokeWidth=2;fontFamily=JetBrains Mono;fontSource=https%3A%2F%2Ffonts.googleapis.com%2Fcss%3Ffamily%3DJetBrains%2BMono;fontStyle=1;" parent="1" vertex="1">
                    <mxGeometry x="270" y="300" width="70" height="20" as="geometry"/>
                </mxCell>
                <mxCell id="CsHc_jXI1Mu5Qs9rJTMG-10" value="virtqemud" style="rounded=1;whiteSpace=wrap;html=1;fillColor=#5e6697;fontColor=#f5f5fb;strokeColor=#5e6697;strokeWidth=2;fontFamily=JetBrains Mono;fontSource=https%3A%2F%2Ffonts.googleapis.com%2Fcss%3Ffamily%3DJetBrains%2BMono;fontStyle=1" parent="1" vertex="1">
                    <mxGeometry x="180" y="270" width="140" height="20" as="geometry"/>
                </mxCell>
                <mxCell id="CsHc_jXI1Mu5Qs9rJTMG-22" value="qemu-kvm" style="rounded=1;whiteSpace=wrap;html=1;fillColor=#5e6697;fontColor=#f5f5fb;strokeColor=#5e6697;strokeWidth=2;fillStyle=auto;fontFamily=JetBrains Mono;fontSource=https%3A%2F%2Ffonts.googleapis.com%2Fcss%3Ffamily%3DJetBrains%2BMono;fontStyle=1" parent="1" vertex="1">
                    <mxGeometry x="180" y="330" width="140" height="20" as="geometry"/>
                </mxCell>
                <mxCell id="12" value="&lt;font data-font-src=&quot;https://fonts.googleapis.com/css?family=JetBrains+Mono&quot; face=&quot;JetBrains Mono&quot; style=&quot;font-size: 9px;&quot;&gt;container&lt;/font&gt;" style="text;html=1;align=center;verticalAlign=middle;resizable=0;points=[];autosize=1;strokeColor=none;fillColor=none;fontColor=default;labelBackgroundColor=none;fontSize=9;fontStyle=1" parent="1" vertex="1">
                    <mxGeometry x="140" y="240" width="70" height="20" as="geometry"/>
                </mxCell>
            </root>
        </mxGraphModel>
    </diagram>
    <diagram name="migrations" id="AV_Fi44eNUMQpxMAX4pz">
        <mxGraphModel dx="639" dy="763" grid="1" gridSize="10" guides="1" tooltips="1" connect="1" arrows="1" fold="1" page="1" pageScale="1" pageWidth="690" pageHeight="980" math="0" shadow="0">
            <root>
                <mxCell id="IGzjx7VNJr4I_hj6b05Z-0"/>
                <mxCell id="IGzjx7VNJr4I_hj6b05Z-1" parent="IGzjx7VNJr4I_hj6b05Z-0"/>
                <mxCell id="IGzjx7VNJr4I_hj6b05Z-5" value="" style="rounded=1;whiteSpace=wrap;html=1;fillColor=#e7e9f5;arcSize=4;strokeColor=#e7e9f;strokeWidth=2;fontFamily=JetBrains Mono;fontSource=https%3A%2F%2Ffonts.googleapis.com%2Fcss%3Ffamily%3DJetBrains%2BMono;fontStyle=1" vertex="1" parent="IGzjx7VNJr4I_hj6b05Z-1">
                    <mxGeometry x="80" y="200" width="320" height="280" as="geometry"/>
                </mxCell>
                <mxCell id="IGzjx7VNJr4I_hj6b05Z-7" value="" style="rounded=1;whiteSpace=wrap;html=1;fillColor=#e7e9f5;strokeColor=#e7e9f;arcSize=24;strokeWidth=2;fontFamily=JetBrains Mono;fontSource=https%3A%2F%2Ffonts.googleapis.com%2Fcss%3Ffamily%3DJetBrains%2BMono;fontStyle=1" vertex="1" parent="IGzjx7VNJr4I_hj6b05Z-1">
                    <mxGeometry x="80" y="540" width="320" height="70" as="geometry"/>
                </mxCell>
                <mxCell id="IGzjx7VNJr4I_hj6b05Z-8" value="Node" style="text;html=1;strokeColor=none;fillColor=none;align=left;verticalAlign=middle;whiteSpace=wrap;rounded=0;fontColor=default;strokeWidth=2;fontFamily=JetBrains Mono;fontSource=https%3A%2F%2Ffonts.googleapis.com%2Fcss%3Ffamily%3DJetBrains%2BMono;fontStyle=1;" vertex="1" parent="IGzjx7VNJr4I_hj6b05Z-1">
                    <mxGeometry x="90" y="110" width="60" height="20" as="geometry"/>
                </mxCell>
                <mxCell id="IGzjx7VNJr4I_hj6b05Z-9" value="virt-launcher" style="text;html=1;strokeColor=none;fillColor=none;align=left;verticalAlign=middle;whiteSpace=wrap;rounded=0;fontColor=default;strokeWidth=2;fontFamily=JetBrains Mono;fontSource=https%3A%2F%2Ffonts.googleapis.com%2Fcss%3Ffamily%3DJetBrains%2BMono;fontStyle=1;" vertex="1" parent="IGzjx7VNJr4I_hj6b05Z-1">
                    <mxGeometry x="90" y="210" width="110" height="20" as="geometry"/>
                </mxCell>
                <mxCell id="IGzjx7VNJr4I_hj6b05Z-10" style="edgeStyle=none;html=1;exitX=0.5;exitY=1;exitDx=0;exitDy=0;entryX=0.5;entryY=0;entryDx=0;entryDy=0;endArrow=classic;endFill=1;startArrow=classic;startFill=1;fillColor=#5e6697;strokeColor=#5e6697;fontColor=#0066ff;strokeWidth=2;fontFamily=JetBrains Mono;fontSource=https%3A%2F%2Ffonts.googleapis.com%2Fcss%3Ffamily%3DJetBrains%2BMono;fontStyle=1" edge="1" parent="IGzjx7VNJr4I_hj6b05Z-1" source="IGzjx7VNJr4I_hj6b05Z-21" target="IGzjx7VNJr4I_hj6b05Z-22">
                    <mxGeometry relative="1" as="geometry"/>
                </mxCell>
                <mxCell id="IGzjx7VNJr4I_hj6b05Z-11" value="VM" style="rounded=0;whiteSpace=wrap;html=1;fillColor=none;fontColor=#0066ff;strokeColor=#0066ff;arcSize=5;strokeWidth=2;fontFamily=JetBrains Mono;fontSource=https%3A%2F%2Ffonts.googleapis.com%2Fcss%3Ffamily%3DJetBrains%2BMono;fontStyle=1" vertex="1" parent="IGzjx7VNJr4I_hj6b05Z-1">
                    <mxGeometry x="170" y="350" width="160" height="90" as="geometry"/>
                </mxCell>
                <mxCell id="IGzjx7VNJr4I_hj6b05Z-12" value="Kernel" style="text;html=1;strokeColor=none;fillColor=none;align=center;verticalAlign=middle;whiteSpace=wrap;rounded=0;fontColor=#0066ff;strokeWidth=2;fontFamily=JetBrains Mono;fontSource=https%3A%2F%2Ffonts.googleapis.com%2Fcss%3Ffamily%3DJetBrains%2BMono;fontStyle=1" vertex="1" parent="IGzjx7VNJr4I_hj6b05Z-1">
                    <mxGeometry x="90" y="550" width="60" height="20" as="geometry"/>
                </mxCell>
                <mxCell id="IGzjx7VNJr4I_hj6b05Z-14" value="KVM" style="rounded=1;whiteSpace=wrap;html=1;fillColor=#0066ff;fontColor=#FFFFFF;strokeColor=#0066ff;strokeWidth=2;fontFamily=JetBrains Mono;fontSource=https%3A%2F%2Ffonts.googleapis.com%2Fcss%3Ffamily%3DJetBrains%2BMono;fontStyle=1" vertex="1" parent="IGzjx7VNJr4I_hj6b05Z-1">
                    <mxGeometry x="205" y="565" width="70" height="20" as="geometry"/>
                </mxCell>
                <mxCell id="IGzjx7VNJr4I_hj6b05Z-15" value="OS" style="text;html=1;strokeColor=none;fillColor=none;align=left;verticalAlign=middle;whiteSpace=wrap;rounded=0;fontColor=default;strokeWidth=2;fontFamily=JetBrains Mono;fontSource=https%3A%2F%2Ffonts.googleapis.com%2Fcss%3Ffamily%3DJetBrains%2BMono;fontStyle=1;" vertex="1" parent="IGzjx7VNJr4I_hj6b05Z-1">
                    <mxGeometry x="100" y="140" width="60" height="20" as="geometry"/>
                </mxCell>
                <mxCell id="IGzjx7VNJr4I_hj6b05Z-16" value="Hardware" style="rounded=1;whiteSpace=wrap;html=1;fillColor=none;fontColor=#0066ff;strokeColor=#0066ff;arcSize=20;strokeWidth=2;fillStyle=hatch;gradientColor=none;perimeterSpacing=0;fontFamily=JetBrains Mono;fontSource=https%3A%2F%2Ffonts.googleapis.com%2Fcss%3Ffamily%3DJetBrains%2BMono;fontStyle=1" vertex="1" parent="IGzjx7VNJr4I_hj6b05Z-1">
                    <mxGeometry x="80" y="640" width="320" height="40" as="geometry"/>
                </mxCell>
                <mxCell id="IGzjx7VNJr4I_hj6b05Z-18" style="edgeStyle=orthogonalEdgeStyle;html=1;strokeColor=#5e6697;fontColor=#FFFFFF;endFill=1;startArrow=classic;startFill=1;strokeWidth=2;entryX=0.5;entryY=1;entryDx=0;entryDy=0;fontFamily=JetBrains Mono;fontSource=https%3A%2F%2Ffonts.googleapis.com%2Fcss%3Ffamily%3DJetBrains%2BMono;exitX=0.5;exitY=0;exitDx=0;exitDy=0;fillColor=#5e6697;fontStyle=1" edge="1" parent="IGzjx7VNJr4I_hj6b05Z-1" source="IGzjx7VNJr4I_hj6b05Z-16" target="IGzjx7VNJr4I_hj6b05Z-7">
                    <mxGeometry relative="1" as="geometry">
                        <mxPoint x="250" y="480" as="sourcePoint"/>
                        <mxPoint x="190" y="510" as="targetPoint"/>
                        <Array as="points"/>
                    </mxGeometry>
                </mxCell>
                <mxCell id="IGzjx7VNJr4I_hj6b05Z-20" value="&lt;font color=&quot;#408bff&quot;&gt;firmware&lt;/font&gt;" style="text;html=1;strokeColor=none;fillColor=none;align=left;verticalAlign=middle;whiteSpace=wrap;rounded=0;fontColor=#0066FF;strokeWidth=2;fontFamily=JetBrains Mono;fontSource=https%3A%2F%2Ffonts.googleapis.com%2Fcss%3Ffamily%3DJetBrains%2BMono;fontStyle=1;" vertex="1" parent="IGzjx7VNJr4I_hj6b05Z-1">
                    <mxGeometry x="270" y="300" width="70" height="20" as="geometry"/>
                </mxCell>
                <mxCell id="IGzjx7VNJr4I_hj6b05Z-21" value="libvirtd" style="rounded=1;whiteSpace=wrap;html=1;fillColor=#0064ff;fontColor=#f5f5fb;strokeColor=#0064ff;strokeWidth=2;fontFamily=JetBrains Mono;fontSource=https%3A%2F%2Ffonts.googleapis.com%2Fcss%3Ffamily%3DJetBrains%2BMono;fontStyle=1" vertex="1" parent="IGzjx7VNJr4I_hj6b05Z-1">
                    <mxGeometry x="170" y="270" width="160" height="20" as="geometry"/>
                </mxCell>
                <mxCell id="u0Al58AmmNDACU_vatIp-2" style="edgeStyle=orthogonalEdgeStyle;html=1;exitX=1;exitY=0.5;exitDx=0;exitDy=0;strokeWidth=2;strokeColor=#5e6697;entryX=1.007;entryY=0.512;entryDx=0;entryDy=0;entryPerimeter=0;" edge="1" parent="IGzjx7VNJr4I_hj6b05Z-1" source="IGzjx7VNJr4I_hj6b05Z-22" target="IGzjx7VNJr4I_hj6b05Z-14">
                    <mxGeometry relative="1" as="geometry">
                        <mxPoint x="280" y="580" as="targetPoint"/>
                        <Array as="points">
                            <mxPoint x="360" y="340"/>
                            <mxPoint x="360" y="575"/>
                        </Array>
                    </mxGeometry>
                </mxCell>
                <mxCell id="IGzjx7VNJr4I_hj6b05Z-22" value="qemu-kvm" style="rounded=0;whiteSpace=wrap;html=1;fillColor=#0064ff;fontColor=#f5f5fb;strokeColor=#0064ff;strokeWidth=2;fillStyle=auto;fontFamily=JetBrains Mono;fontSource=https%3A%2F%2Ffonts.googleapis.com%2Fcss%3Ffamily%3DJetBrains%2BMono;fontStyle=1" vertex="1" parent="IGzjx7VNJr4I_hj6b05Z-1">
                    <mxGeometry x="170" y="330" width="160" height="20" as="geometry"/>
                </mxCell>
                <mxCell id="u0Al58AmmNDACU_vatIp-4" value="" style="rounded=1;whiteSpace=wrap;html=1;fillColor=#e7e9f5;arcSize=4;strokeColor=#e7e9f;strokeWidth=2;fontFamily=JetBrains Mono;fontSource=https%3A%2F%2Ffonts.googleapis.com%2Fcss%3Ffamily%3DJetBrains%2BMono;fontStyle=1" vertex="1" parent="IGzjx7VNJr4I_hj6b05Z-1">
                    <mxGeometry x="440" y="200" width="200" height="280" as="geometry"/>
                </mxCell>
                <mxCell id="u0Al58AmmNDACU_vatIp-6" value="virt-handler" style="text;html=1;strokeColor=none;fillColor=none;align=left;verticalAlign=middle;whiteSpace=wrap;rounded=0;fontColor=default;strokeWidth=2;fontFamily=JetBrains Mono;fontSource=https%3A%2F%2Ffonts.googleapis.com%2Fcss%3Ffamily%3DJetBrains%2BMono;fontStyle=1;" vertex="1" parent="IGzjx7VNJr4I_hj6b05Z-1">
                    <mxGeometry x="450" y="210" width="110" height="20" as="geometry"/>
                </mxCell>
            </root>
        </mxGraphModel>
    </diagram>
</mxfile>
